<?xml version="1.0" encoding="UTF-8" standalone="no"?>
<!-- Created with Inkscape (http://www.inkscape.org/) -->

<svg
   xmlns:dc="http://purl.org/dc/elements/1.1/"
   xmlns:cc="http://creativecommons.org/ns#"
   xmlns:rdf="http://www.w3.org/1999/02/22-rdf-syntax-ns#"
   xmlns:svg="http://www.w3.org/2000/svg"
   xmlns="http://www.w3.org/2000/svg"
   xmlns:sodipodi="http://sodipodi.sourceforge.net/DTD/sodipodi-0.dtd"
   xmlns:inkscape="http://www.inkscape.org/namespaces/inkscape"
   version="1.1"
   id="svg834"
   xml:space="preserve"
   width="483.78"
   height="180"
   viewBox="0 0 483.78 180"
   sodipodi:docname="lineartime.svg"
   inkscape:version="0.92.2 2405546, 2018-03-11"><metadata
     id="metadata840"><rdf:RDF><cc:Work
         rdf:about=""><dc:format>image/svg+xml</dc:format><dc:type
           rdf:resource="http://purl.org/dc/dcmitype/StillImage" /><dc:title /></cc:Work></rdf:RDF></metadata><defs
     id="defs838"><clipPath
       clipPathUnits="userSpaceOnUse"
       id="clipPath1014"><path
         d="M 0,0 H 283.46457 V 170.07873 H 0 Z"
         id="path1012"
         inkscape:connector-curvature="0" /></clipPath></defs><sodipodi:namedview
     pagecolor="#ffffff"
     bordercolor="#666666"
     borderopacity="1"
     objecttolerance="10"
     gridtolerance="10"
     guidetolerance="10"
     inkscape:pageopacity="0"
     inkscape:pageshadow="2"
     inkscape:window-width="1024"
     inkscape:window-height="730"
     id="namedview836"
     showgrid="false"
     inkscape:snap-page="true"
     showguides="false"
     inkscape:zoom="0.5466497"
     inkscape:cx="238.45428"
     inkscape:cy="-117.28809"
     inkscape:window-x="0"
     inkscape:window-y="38"
     inkscape:window-maximized="0"
     inkscape:current-layer="text1134"
     borderlayer="true" /><g
     id="g842"
     inkscape:groupmode="layer"
     inkscape:label="presentation"
     transform="matrix(1.3333333,0,0,-1.3333333,0,180.00001)"><rect
   style="opacity:1;fill:#000000;fill-opacity:1;stroke:none;stroke-width:1.89106667;stroke-linecap:butt;stroke-linejoin:round;stroke-miterlimit:4;stroke-dasharray:none;stroke-dashoffset:21.35433006;stroke-opacity:1"
   id="rect1128"
   width="363.20047"
   height="134.89497"
   x="3.1554436e-30"
   y="-134.89497"
   transform="scale(1,-1)" /><g
   aria-label="S=[ 0{        },1{     },2{   },3{ ..."
   transform="matrix(1.061674,0,0,-0.94190872,0,13.5)"
   style="font-style:normal;font-weight:normal;font-size:25.5715065px;line-height:1.25;font-family:sans-serif;letter-spacing:0px;word-spacing:0px;fill:#000000;fill-opacity:1;stroke:none;stroke-width:0.63928765"
   id="text1134"><path
     d="m 22.933081,-77.941073 q 0,1.53429 -0.767145,2.71058 -0.767145,1.150717 -2.224721,1.815577 -1.457576,0.639287 -3.452153,0.639287 -1.917863,0 -3.503297,-0.562573 -1.559862,-0.588145 -2.685008,-1.662148 l 1.329718,-1.508719 q 0.971718,0.920575 2.148007,1.406433 1.201861,0.485859 2.736151,0.485859 1.738863,0 2.915152,-0.84386 1.176289,-0.84386 1.176289,-2.429293 0,-0.895003 -0.332429,-1.483147 -0.33243,-0.588145 -1.17629,-1.048432 -0.818288,-0.460287 -2.327007,-0.895003 -2.864008,-0.84386 -4.270441,-1.969006 -1.406433,-1.150718 -1.406433,-3.119724 0,-1.304147 0.716002,-2.352578 0.716002,-1.048432 2.020149,-1.611005 1.304147,-0.588145 2.966295,-0.588145 1.738862,0 3.094152,0.51143 1.380861,0.51143 2.531579,1.508719 l -1.329718,1.432005 q -1.815577,-1.585434 -4.219299,-1.585434 -1.53429,0 -2.531579,0.664859 -0.997289,0.664859 -0.997289,1.943435 0,0.767145 0.409145,1.304147 0.409144,0.537001 1.355289,0.997288 0.946146,0.460288 2.659437,0.946146 2.480436,0.716002 3.810155,1.86672 1.355289,1.150718 1.355289,3.426582 z"
     style="letter-spacing:-1.9642117px;stroke-width:0.63928765;fill:#f5f5f5"
     id="path845"
     inkscape:connector-curvature="0" /><path
     d="m 35.20221,-84.359521 v 1.841148 h -9.921744 v -1.841148 z m 0,4.858586 v 1.841149 h -9.921744 v -1.841149 z"
     style="letter-spacing:-1.9642117px;stroke-width:0.63928765;fill:#f5f5f5"
     id="path847"
     inkscape:connector-curvature="0" /><path
     style="letter-spacing:-3.61143517px;fill:#f5f5f5;stroke-width:0.85238349"
     d="m 94.894531,23.402344 c -2.171888,0 -3.944783,0.330436 -5.320312,0.99414 -1.375529,0.663704 -2.064453,1.788722 -2.064453,3.373047 0,0.278328 0.01298,0.49271 0.03711,0.642578 l 0.759766,26.166016 c 0.02413,0.149868 0.03711,0.352457 0.03711,0.609375 0,0.942031 -0.398953,1.638285 -1.195312,2.087891 -0.796359,0.428196 -2.244259,0.642578 -4.34375,0.642578 v 2.183593 c 2.099491,0 3.547391,0.224223 4.34375,0.673829 0.796359,0.449606 1.195312,1.145859 1.195312,2.08789 0,0.278328 -0.01298,0.49271 -0.03711,0.642578 l -0.759766,26.101563 c -0.02413,0.149868 -0.03711,0.36425 -0.03711,0.642578 0,1.584325 0.688924,2.70739 2.064453,3.371094 1.375529,0.663704 3.148424,0.996094 5.320312,0.996094 v -2.152344 c -1.472057,0 -2.618962,-0.192749 -3.439453,-0.578125 -0.820491,-0.385377 -1.182466,-1.048204 -1.085937,-1.990235 L 91.09375,63.3125 c 0.02413,-0.214098 0.03711,-0.503221 0.03711,-0.867188 0,-1.04908 -0.278947,-1.829914 -0.833984,-2.34375 -0.530907,-0.535245 -1.387841,-0.899108 -2.570313,-1.091796 1.158341,-0.192688 2.015275,-0.556552 2.570313,-1.091797 0.555037,-0.556655 0.833984,-1.349283 0.833984,-2.376953 0,-0.363967 -0.01298,-0.64325 -0.03711,-0.835938 L 90.369141,28.123047 c -0.193057,-1.712784 1.315822,-2.570313 4.52539,-2.570313 z m 102.964849,0 v 2.15039 c 3.20957,0 4.71845,0.857529 4.52539,2.570313 l -0.72461,26.582031 c -0.0242,0.192688 -0.0352,0.460178 -0.0352,0.802734 0,1.049081 0.30099,1.853502 0.9043,2.410157 0.62743,0.535245 1.59335,0.908949 2.89648,1.123047 -1.35139,0.171278 -2.33029,0.513508 -2.93359,1.027343 -0.60331,0.513835 -0.9043,1.306463 -0.9043,2.376953 0,0.149869 0.024,0.438992 0.0723,0.867188 l 0.72461,26.583984 c 0.0965,0.942031 -0.26545,1.604858 -1.08594,1.990235 -0.82049,0.385376 -1.96739,0.578125 -3.43945,0.578125 v 2.152344 c 2.17189,0 3.94673,-0.33239 5.32226,-0.996094 1.37552,-0.663704 2.0625,-1.786769 2.0625,-3.371094 0,-0.278328 -0.0129,-0.49271 -0.0371,-0.642578 l -0.75976,-26.101563 c -0.0242,-0.128458 -0.0352,-0.299574 -0.0352,-0.513671 0,-0.984851 0.421,-1.712579 1.26562,-2.183594 0.84463,-0.471016 2.26852,-0.707031 4.27149,-0.707032 v -2.183593 c -1.97884,0 -3.40273,-0.236016 -4.27149,-0.707031 -0.84462,-0.471016 -1.26562,-1.188903 -1.26562,-2.152344 0,-0.214098 0.011,-0.37342 0.0352,-0.480469 l 0.75976,-26.166016 c 0.0242,-0.149868 0.0371,-0.36425 0.0371,-0.642578 0,-1.584325 -0.68698,-2.709343 -2.0625,-3.373047 -1.37553,-0.663704 -3.15037,-0.99414 -5.32226,-0.99414 z m 41.30078,0 c -2.1719,0 -3.94479,0.330436 -5.32032,0.99414 -1.37553,0.663704 -2.06445,1.788722 -2.06445,3.373047 0,0.278328 0.013,0.49271 0.0371,0.642578 l 0.75977,26.166016 c 0.0241,0.149868 0.0371,0.352457 0.0371,0.609375 0,0.942031 -0.39896,1.638285 -1.19532,2.087891 -0.79636,0.428196 -2.24426,0.642578 -4.34375,0.642578 v 2.183593 c 2.09949,0 3.54739,0.224223 4.34375,0.673829 0.79636,0.449606 1.19532,1.145859 1.19532,2.08789 0,0.278328 -0.013,0.49271 -0.0371,0.642578 l -0.75977,26.101563 c -0.0242,0.149868 -0.0371,0.36425 -0.0371,0.642578 0,1.584325 0.68892,2.70739 2.06445,3.371094 1.37553,0.663704 3.14842,0.996094 5.32032,0.996094 v -2.152344 c -1.47206,0 -2.61701,-0.192749 -3.4375,-0.578125 -0.82049,-0.385377 -1.18442,-1.048204 -1.08789,-1.990235 L 235.35938,63.3125 c 0.0242,-0.214098 0.0371,-0.503221 0.0371,-0.867188 0,-1.04908 -0.27895,-1.829914 -0.83398,-2.34375 -0.5309,-0.535245 -1.38588,-0.899108 -2.56836,-1.091796 1.15834,-0.192688 2.01332,-0.556552 2.56836,-1.091797 0.55503,-0.556655 0.83398,-1.349283 0.83398,-2.376953 0,-0.363967 -0.0129,-0.64325 -0.0371,-0.835938 l -0.72461,-26.582031 c -0.19306,-1.712784 1.31582,-2.570313 4.52539,-2.570313 z m 65,0 v 2.15039 c 3.20956,0 4.71844,0.857529 4.52539,2.570313 l -0.72461,26.582031 c -0.0242,0.192688 -0.0371,0.460178 -0.0371,0.802734 0,1.049081 0.30294,1.853502 0.90625,2.410157 0.62743,0.535245 1.5914,0.908949 2.89453,1.123047 -1.3514,0.171278 -2.32835,0.513508 -2.93164,1.027343 -0.60331,0.513835 -0.9043,1.306463 -0.9043,2.376953 0,0.149869 0.024,0.438992 0.0723,0.867188 l 0.72461,26.583984 c 0.0965,0.942031 -0.26545,1.604858 -1.08594,1.990235 -0.82049,0.385376 -1.96739,0.578125 -3.43945,0.578125 v 2.152344 c 2.17189,0 3.94478,-0.33239 5.32031,-0.996094 1.37552,-0.663704 2.06445,-1.786769 2.06445,-3.371094 0,-0.278328 -0.0129,-0.49271 -0.0371,-0.642578 l -0.75976,-26.101563 c -0.0242,-0.128458 -0.0371,-0.299574 -0.0371,-0.513671 0,-0.984851 0.42295,-1.712579 1.26758,-2.183594 0.84462,-0.471016 2.26851,-0.707031 4.27148,-0.707032 v -2.183593 c -1.97884,0 -3.40273,-0.236016 -4.27148,-0.707031 -0.84463,-0.471016 -1.26758,-1.188903 -1.26758,-2.152344 0,-0.214098 0.0129,-0.37342 0.0371,-0.480469 l 0.75976,-26.166016 c 0.0242,-0.149868 0.0371,-0.36425 0.0371,-0.642578 0,-1.584325 -0.68893,-2.709343 -2.06445,-3.373047 -1.37553,-0.663704 -3.14842,-0.99414 -5.32031,-0.99414 z m 41.30078,0 c -2.17189,0 -3.94674,0.330436 -5.32227,0.99414 -1.37553,0.663704 -2.0625,1.788722 -2.0625,3.373047 0,0.278328 0.0129,0.49271 0.0371,0.642578 l 0.75977,26.166016 c 0.0242,0.149868 0.0352,0.352457 0.0352,0.609375 0,0.942031 -0.397,1.638285 -1.19336,2.087891 -0.79636,0.428196 -2.24426,0.642578 -4.34375,0.642578 v 2.183593 c 2.09949,0 3.54739,0.224223 4.34375,0.673829 0.79636,0.449606 1.19336,1.145859 1.19336,2.08789 0,0.278328 -0.011,0.49271 -0.0352,0.642578 l -0.75977,26.101563 c -0.0242,0.149868 -0.0371,0.36425 -0.0371,0.642578 0,1.584325 0.68697,2.70739 2.0625,3.371094 1.37553,0.663704 3.15038,0.996094 5.32227,0.996094 v -2.152344 c -1.47207,0 -2.61897,-0.192749 -3.43946,-0.578125 -0.82049,-0.385377 -1.18247,-1.048204 -1.08593,-1.990235 L 341.66016,63.3125 c 0.0242,-0.214098 0.0351,-0.503221 0.0351,-0.867188 0,-1.04908 -0.277,-1.829914 -0.83203,-2.34375 -0.53091,-0.535245 -1.38784,-0.899108 -2.57031,-1.091796 1.15834,-0.192688 2.01527,-0.556552 2.57031,-1.091797 0.55503,-0.556655 0.83203,-1.349283 0.83203,-2.376953 0,-0.363967 -0.011,-0.64325 -0.0351,-0.835938 l -0.72461,-26.582031 c -0.19306,-1.712784 1.31582,-2.570313 4.52539,-2.570313 z m 39.68945,0 v 2.15039 c 3.20957,0 4.71649,0.857529 4.52344,2.570313 l -0.72266,26.582031 c -0.0242,0.192688 -0.0371,0.460178 -0.0371,0.802734 0,1.049081 0.30295,1.853502 0.90625,2.410157 0.62744,0.535245 1.5914,0.908949 2.89453,1.123047 -1.3514,0.171278 -2.32834,0.513508 -2.93164,1.027343 -0.6033,0.513835 -0.90429,1.306463 -0.90429,2.376953 0,0.149869 0.024,0.438992 0.0723,0.867188 l 0.72266,26.583984 c 0.0965,0.942031 -0.26545,1.604858 -1.08594,1.990235 -0.82049,0.385376 -1.96543,0.578125 -3.4375,0.578125 v 2.152344 c 2.17189,0 3.94478,-0.33239 5.32031,-0.996094 1.37553,-0.663704 2.0625,-1.786769 2.0625,-3.371094 0,-0.278328 -0.011,-0.49271 -0.0352,-0.642578 l -0.75977,-26.101563 c -0.0242,-0.128458 -0.0371,-0.299574 -0.0371,-0.513671 0,-0.984851 0.42296,-1.712579 1.26758,-2.183594 0.84462,-0.471016 2.26852,-0.707031 4.27148,-0.707032 v -2.183593 c -1.97883,0 -3.40273,-0.236016 -4.27148,-0.707031 -0.84462,-0.471016 -1.26758,-1.188903 -1.26758,-2.152344 0,-0.214098 0.0129,-0.37342 0.0371,-0.480469 l 0.75977,-26.166016 c 0.0242,-0.149868 0.0352,-0.36425 0.0352,-0.642578 0,-1.584325 -0.68697,-2.709343 -2.0625,-3.373047 -1.37553,-0.663704 -3.14842,-0.99414 -5.32031,-0.99414 z m 41.30078,0 c -2.17188,0 -3.94673,0.330436 -5.32226,0.99414 -1.37554,0.663704 -2.0625,1.788722 -2.0625,3.373047 0,0.278328 0.011,0.49271 0.0351,0.642578 l 0.76172,26.166016 c 0.0242,0.149868 0.0352,0.352457 0.0352,0.609375 0,0.942031 -0.397,1.638285 -1.19336,2.087891 -0.79636,0.428196 -2.24426,0.642578 -4.34375,0.642578 v 2.183593 c 2.09949,0 3.54739,0.224223 4.34375,0.673829 0.79636,0.449606 1.19336,1.145859 1.19336,2.08789 0,0.278328 -0.011,0.49271 -0.0352,0.642578 l -0.76172,26.101563 c -0.0242,0.149868 -0.0351,0.36425 -0.0351,0.642578 0,1.584325 0.68696,2.70739 2.0625,3.371094 1.37553,0.663704 3.15038,0.996094 5.32226,0.996094 v -2.152344 c -1.47205,0 -2.61896,-0.192749 -3.43945,-0.578125 -0.82049,-0.385377 -1.18246,-1.048204 -1.08594,-1.990235 L 422.65039,63.3125 c 0.0242,-0.214098 0.0352,-0.503221 0.0352,-0.867188 0,-1.04908 -0.27699,-1.829914 -0.83203,-2.34375 -0.53091,-0.535245 -1.38784,-0.899108 -2.57032,-1.091796 1.15835,-0.192688 2.01528,-0.556552 2.57032,-1.091797 0.55504,-0.556655 0.83203,-1.349283 0.83203,-2.376953 0,-0.363967 -0.011,-0.64325 -0.0352,-0.835938 l -0.72461,-26.582031 c -0.19305,-1.712784 1.31582,-2.570313 4.52539,-2.570313 z M 57.533203,24.076172 v 69.867187 h 9.085938 v -2.28125 H 60.429688 V 26.388672 h 6.189453 v -2.3125 z"
     transform="matrix(0.70643156,0,0,0.79625552,0,-128.9934)"
     id="path849"
     inkscape:connector-curvature="0"
     sodipodi:nodetypes="cssccscccssccssccsccscccsccccccccscccsccscccsccsccccsccscccssccscccssccssccsccscccsccccccccscccsccscccsccsccccsccscccssccscccssccssccsccscccsccccccccsccssccsccssccsscccsccsscccsccscccssccscccsccscccsccccccccccccc" /><path
     d="m 56.916767,-110.84566 q 1.828363,0 2.775787,1.52917 0.964046,1.51256 0.964046,4.37145 0,2.87552 -0.964046,4.40469 -0.947424,1.512559 -2.775787,1.512559 -1.828362,0 -2.792408,-1.512559 -0.947424,-1.52917 -0.947424,-4.40469 0,-2.85889 0.947424,-4.37145 0.964046,-1.52917 2.792408,-1.52917 z m 0,1.13026 q -2.277142,0 -2.277142,4.77036 0,1.89485 0.299186,2.99187 l 3.490511,-7.03089 q -0.531887,-0.73134 -1.512555,-0.73134 z m 0,9.55735 q 2.277143,0 2.277143,-4.78699 0,-1.91147 -0.299187,-3.00849 l -3.473889,7.08075 q 0.531888,0.71473 1.495933,0.71473 z"
     style="font-size:16.62147903px;letter-spacing:-6.39287663px;baseline-shift:super;fill:#757575;stroke-width:0.63928765"
     id="path851"
     inkscape:connector-curvature="0" /><path
     d="m 152.57568,-77.276214 q 0.86943,0 1.45758,0.613716 0.61372,0.588145 0.61372,1.432005 0,0.946145 -0.48586,2.020149 l -2.0713,4.730728 h -1.94343 l 1.20186,-5.037586 q -0.358,-0.281287 -0.58814,-0.741574 -0.23015,-0.460287 -0.23015,-0.946146 0,-0.869431 0.58815,-1.457576 0.58814,-0.613716 1.45757,-0.613716 z"
     style="font-style:normal;font-variant:normal;font-weight:normal;font-stretch:normal;font-family:'Fira Code';-inkscape-font-specification:'Fira Code';letter-spacing:-6.39287663px;fill:#ffffff;stroke-width:0.63928765"
     id="path857"
     inkscape:connector-curvature="0" /><path
     d="m 160.0607,-100.34089 h 2.37687 v 1.130262 h -6.59873 v -1.130262 h 2.80903 v -8.79276 l -2.60957,1.57904 -0.615,-0.98067 3.40741,-2.12755 h 1.22999 z"
     style="font-size:16.62147903px;letter-spacing:-6.39287663px;baseline-shift:super;fill:#757575;stroke-width:0.63928765"
     id="path859"
     inkscape:connector-curvature="0" /><path
     d="m 227.66951,-77.276214 q 0.86943,0 1.45758,0.613716 0.61371,0.588145 0.61371,1.432005 0,0.946145 -0.48586,2.020149 l -2.07129,4.730728 h -1.94343 l 1.20186,-5.037586 q -0.358,-0.281287 -0.58815,-0.741574 -0.23014,-0.460287 -0.23014,-0.946146 0,-0.869431 0.58814,-1.457576 0.58815,-0.613716 1.45758,-0.613716 z"
     style="font-style:normal;font-variant:normal;font-weight:normal;font-stretch:normal;font-family:'Fira Code';-inkscape-font-specification:'Fira Code';letter-spacing:-6.39287663px;fill:#ffffff;stroke-width:0.63928765"
     id="path865"
     inkscape:connector-curvature="0" /><path
     d="m 233.40927,-110.84566 q 1.04715,0 1.82836,0.41553 0.79783,0.41554 1.21337,1.14689 0.41554,0.71472 0.41554,1.6289 0,1.06378 -0.49865,2.06106 -0.48202,0.99729 -1.56242,2.19404 -1.08039,1.18012 -3.05835,2.99187 h 5.38536 l -0.16622,1.196742 h -6.8148 v -1.130262 q 2.2439,-2.14417 3.32429,-3.35754 1.09702,-1.21337 1.51256,-2.07768 0.41554,-0.86432 0.41554,-1.82837 0,-0.96404 -0.54851,-1.51255 -0.54851,-0.54851 -1.51256,-0.54851 -0.81445,0 -1.36296,0.28257 -0.53189,0.26594 -1.09702,0.9308 l -0.96404,-0.74797 q 0.68148,-0.84769 1.51255,-1.24661 0.8477,-0.39891 1.97796,-0.39891 z"
     style="font-size:16.62147903px;letter-spacing:-6.39287663px;baseline-shift:super;fill:#757575;stroke-width:0.63928765"
     id="path867"
     inkscape:connector-curvature="0" /><path
     d="m 284.88325,-77.276214 q 0.86944,0 1.45758,0.613716 0.61372,0.588145 0.61372,1.432005 0,0.946145 -0.48586,2.020149 l -2.07129,4.730728 h -1.94344 l 1.20186,-5.037586 q -0.358,-0.281287 -0.58814,-0.741574 -0.23015,-0.460287 -0.23015,-0.946146 0,-0.869431 0.58815,-1.457576 0.58814,-0.613716 1.45757,-0.613716 z"
     style="font-style:normal;font-variant:normal;font-weight:normal;font-stretch:normal;font-family:'Fira Code';-inkscape-font-specification:'Fira Code';letter-spacing:-6.39287663px;fill:#ffffff;stroke-width:0.63928765"
     id="path873"
     inkscape:connector-curvature="0" /><path
     d="m 290.62301,-110.84566 q 1.04716,0 1.84499,0.39891 0.79783,0.3823 1.22999,1.04716 0.43216,0.64823 0.43216,1.42944 0,0.99729 -0.64824,1.74526 -0.64824,0.73134 -1.57904,0.91418 1.08039,0.0831 1.82836,0.81445 0.76459,0.73135 0.76459,1.99458 0,0.98067 -0.49865,1.7785 -0.49864,0.797829 -1.41282,1.246609 -0.89756,0.44878 -2.06107,0.44878 -1.01391,0 -1.96133,-0.382294 -0.9308,-0.382294 -1.5458,-1.130265 l 0.93081,-0.76458 q 0.4654,0.5485 1.13026,0.84769 0.68148,0.28257 1.41282,0.28257 1.19675,0 1.86161,-0.615 0.68148,-0.63161 0.68148,-1.71201 0,-2.17741 -2.37687,-2.17741 h -0.94743 l 0.16622,-1.11364 h 0.68148 q 0.89756,0 1.52917,-0.49865 0.63162,-0.51526 0.63162,-1.49593 0,-0.91418 -0.615,-1.41283 -0.59837,-0.51526 -1.54579,-0.51526 -0.71473,0 -1.27986,0.24932 -0.54851,0.24932 -1.14688,0.79783 l -0.76459,-0.8477 q 1.39621,-1.32971 3.25781,-1.32971 z"
     style="font-size:16.62147903px;letter-spacing:-6.39287663px;baseline-shift:super;fill:#757575;stroke-width:0.63928765"
     id="path875"
     inkscape:connector-curvature="0" /><path
     d="m 315.56377,-75.025921 q 0,-0.946146 0.66486,-1.585434 0.63929,-0.664859 1.58543,-0.664859 0.97172,0 1.61101,0.664859 0.63929,0.639288 0.63929,1.585434 0,0.971717 -0.63929,1.611005 -0.63929,0.639287 -1.61101,0.639287 -0.94614,0 -1.58543,-0.639287 -0.66486,-0.66486 -0.66486,-1.611005 z m 10.2286,0 q 0,-0.946146 0.63929,-1.585434 0.66486,-0.664859 1.61101,-0.664859 0.97171,0 1.611,0.664859 0.63929,0.639288 0.63929,1.585434 0,0.971717 -0.63929,1.611005 -0.63929,0.639287 -1.611,0.639287 -0.94615,0 -1.61101,-0.639287 -0.63929,-0.66486 -0.63929,-1.611005 z m -20.4572,0 q 0,-0.946146 0.66486,-1.585434 0.63928,-0.664859 1.58543,-0.664859 0.97172,0 1.61101,0.664859 0.63928,0.639288 0.63928,1.585434 0,0.971717 -0.63928,1.611005 -0.63929,0.639287 -1.61101,0.639287 -0.94615,0 -1.58543,-0.639287 -0.66486,-0.66486 -0.66486,-1.611005 z"
     style="font-style:normal;font-variant:normal;font-weight:normal;font-stretch:normal;font-family:'Fira Code';-inkscape-font-specification:'Fira Code';letter-spacing:-6.39287663px;fill:#ffffff;stroke-width:0.63928765"
     id="path879"
     inkscape:connector-curvature="0" /></g>

<text
   xml:space="preserve"
   style="font-style:normal;font-weight:normal;font-size:9.87329674px;line-height:1.25;font-family:sans-serif;letter-spacing:0px;word-spacing:0px;fill:#000000;fill-opacity:1;stroke:none;stroke-width:0.41778681"
   x="10.14171"
   y="-132.03381"
   id="text957"
   transform="scale(1.061674,-0.94190872)"><tspan
     sodipodi:role="line"
     id="tspan955"
     x="10.14171"
     y="-132.03381"
     style="font-style:normal;font-variant:normal;font-weight:normal;font-stretch:normal;font-family:'Fira Code';-inkscape-font-specification:'Fira Code';letter-spacing:0px;fill:#ffffff;stroke-width:0.41778681">N=[  -&gt; <tspan
   style="font-style:normal;font-variant:normal;font-weight:normal;font-stretch:normal;font-family:'CMU Serif';-inkscape-font-specification:'CMU Serif';stroke-width:0.41778681"
   id="tspan971">Enthaltende Menge in S</tspan>]</tspan></text>

<text
   transform="scale(1.061674,-0.94190872)"
   id="text969"
   y="-132.1167"
   x="195.22678"
   style="font-style:normal;font-weight:normal;font-size:9.87329674px;line-height:1.25;font-family:sans-serif;letter-spacing:0px;word-spacing:0px;fill:#000000;fill-opacity:1;stroke:none;stroke-width:0.41778681"
   xml:space="preserve"><tspan
     style="font-style:normal;font-variant:normal;font-weight:normal;font-stretch:normal;font-family:'Fira Code';-inkscape-font-specification:'Fira Code';letter-spacing:0px;fill:#ffffff;stroke-width:0.41778681"
     y="-132.1167"
     x="195.22678"
     id="tspan967"
     sodipodi:role="line">M=[  -&gt; <tspan
   style="font-style:normal;font-variant:normal;font-weight:normal;font-stretch:normal;font-family:'CMU Serif';-inkscape-font-specification:'CMU Serif';stroke-width:0.41778681"
   id="tspan973">Speicherstelle in S</tspan>]</tspan></text>

<text
   transform="scale(1.061674,-0.94190872)"
   id="text1030"
   y="-32.747978"
   x="18.123379"
   style="font-style:normal;font-weight:normal;font-size:22.43901062px;line-height:1.25;font-family:sans-serif;letter-spacing:0px;word-spacing:0px;fill:#000000;fill-opacity:1;stroke:none;stroke-width:0.56097525"
   xml:space="preserve"><tspan
     style="font-style:normal;font-variant:normal;font-weight:normal;font-stretch:normal;font-family:'Fira Code';-inkscape-font-specification:'Fira Code';letter-spacing:0px;fill:#ffffff;stroke-width:0.56097525"
     y="-32.747978"
     x="18.123379"
     id="tspan1028"
     sodipodi:role="line">σ=[<tspan
   style="fill:#616161;stroke-width:0.56097525"
   id="tspan1036"
   dy="0 0 0 0 0 0 0 0 0 0 0 0 0 0 0 0 1.7550012"> <tspan
   style="font-size:8.77500534px;letter-spacing:9.87188148px;stroke-width:0.56097525"
   id="tspan1044"
   dy="-1.7550012">1 2 3 4 5 6 7 8</tspan> </tspan>]</tspan></text>

<path
   style="fill:#ffffff;stroke:#ffffff;stroke-width:2.72150517;stroke-linecap:butt;stroke-linejoin:miter;stroke-miterlimit:4;stroke-dasharray:none;stroke-opacity:1"
   d="m -25.2238,56.415832 h 413.28261 v 0"
   id="path1054"
   inkscape:connector-curvature="0" /><g
   id="g876"
   transform="matrix(0.90570451,0,0,-0.90570451,-4.9510166,373.39074)"
   style="stroke-width:1.69259298"><circle
   style="opacity:1;fill:none;fill-opacity:1;stroke:#ffffff;stroke-width:0.25388896;stroke-linecap:butt;stroke-linejoin:round;stroke-miterlimit:4;stroke-dasharray:none;stroke-dashoffset:0;stroke-opacity:1"
   id="circle821"
   cx="44.330357"
   cy="271.6113"
   r="4.2729011" /><text
   xml:space="preserve"
   style="font-style:normal;font-weight:normal;font-size:6.56159592px;line-height:1.25;font-family:sans-serif;letter-spacing:0px;word-spacing:0px;fill:#ffffff;fill-opacity:1;stroke:none;stroke-width:0.27765277"
   x="44.304111"
   y="272.73795"
   id="text825"><tspan
     sodipodi:role="line"
     id="tspan823"
     x="44.304111"
     y="272.73795"
     style="font-style:normal;font-variant:normal;font-weight:normal;font-stretch:normal;font-family:'CMU Serif';-inkscape-font-specification:'CMU Serif';text-align:center;text-anchor:middle;fill:#ffffff;stroke-width:0.27765277">v<tspan
   id="tspan957"
   style="font-size:64.99999762%;baseline-shift:sub;fill:#ffffff;stroke-width:0.27765277">i</tspan></tspan></text>

</g><g
   transform="matrix(0.90570451,0,0,-0.90570451,191.54898,373.46882)"
   id="g1078"
   style="stroke-width:1.69259298"><circle
   r="4.2729011"
   cy="271.6113"
   cx="44.330357"
   id="circle1070"
   style="opacity:1;fill:none;fill-opacity:1;stroke:#ffffff;stroke-width:0.25388896;stroke-linecap:butt;stroke-linejoin:round;stroke-miterlimit:4;stroke-dasharray:none;stroke-dashoffset:0;stroke-opacity:1" /><text
   id="text1076"
   y="272.73795"
   x="44.304111"
   style="font-style:normal;font-weight:normal;font-size:6.56159592px;line-height:1.25;font-family:sans-serif;letter-spacing:0px;word-spacing:0px;fill:#ffffff;fill-opacity:1;stroke:none;stroke-width:0.27765277"
   xml:space="preserve"><tspan
     style="font-style:normal;font-variant:normal;font-weight:normal;font-stretch:normal;font-family:'CMU Serif';-inkscape-font-specification:'CMU Serif';text-align:center;text-anchor:middle;fill:#ffffff;stroke-width:0.27765277"
     y="272.73795"
     x="44.304111"
     id="tspan1074"
     sodipodi:role="line">v<tspan
   style="font-size:64.99999762%;baseline-shift:sub;fill:#ffffff;stroke-width:0.27765277"
   id="tspan1072">i</tspan></tspan></text>

</g></g></svg>